<svg width="600" height="600" viewBox="0 0 600 600" fill="none" xmlns="http://www.w3.org/2000/svg">
<rect width="600" height="600" fill="#DDDDDD"/>
<path d="M-3296 -60C-3296 -159.411 -3215.41 -240 -3116 -240H660C759.411 -240 840 -159.411 840 -60V660C840 759.411 759.411 840 660 840H-3116C-3215.41 840 -3296 759.411 -3296 660V-60Z" fill="#EFEBF5" fill-opacity="0.5"/>
<path d="M-3116 838C-3123.88 838 -3131.64 837.488 -3139.25 836.495L-3139.77 840.462C-3131.99 841.477 -3124.05 842 -3116 842V838ZM-3184.14 824.494C-3198.61 818.494 -3212.11 810.639 -3224.36 801.226L-3226.8 804.398C-3214.28 814.021 -3200.47 822.053 -3185.67 828.189L-3184.14 824.494ZM-3257.23 768.362C-3266.64 756.113 -3274.49 742.606 -3280.49 728.136L-3284.19 729.668C-3278.05 744.465 -3270.02 758.277 -3260.4 770.8L-3257.23 768.362ZM-3292.5 683.251C-3293.49 675.642 -3294 667.881 -3294 660H-3298C-3298 668.055 -3297.48 675.988 -3296.46 683.768L-3292.5 683.251ZM-3294 660V637.5H-3298V660H-3294ZM-3294 592.5V547.5H-3298V592.5H-3294ZM-3294 502.5V457.5H-3298V502.5H-3294ZM-3294 412.5V367.5H-3298V412.5H-3294ZM-3294 322.5V277.5H-3298V322.5H-3294ZM-3294 232.5V187.5H-3298V232.5H-3294ZM-3294 142.5V97.5H-3298V142.5H-3294ZM-3294 52.5V7.50002H-3298V52.5H-3294ZM-3294 -37.5V-60H-3298V-37.5H-3294ZM-3294 -60C-3294 -67.8813 -3293.49 -75.6421 -3292.5 -83.251L-3296.46 -83.7683C-3297.48 -75.9884 -3298 -68.0548 -3298 -60H-3294ZM-3280.49 -128.136C-3274.49 -142.606 -3266.64 -156.113 -3257.23 -168.362L-3260.4 -170.8C-3270.02 -158.277 -3278.05 -144.465 -3284.19 -129.668L-3280.49 -128.136ZM-3224.36 -201.226C-3212.11 -210.639 -3198.61 -218.494 -3184.14 -224.494L-3185.67 -228.189C-3200.47 -222.053 -3214.28 -214.021 -3226.8 -204.398L-3224.36 -201.226ZM-3139.25 -236.495C-3131.64 -237.488 -3123.88 -238 -3116 -238V-242C-3124.05 -242 -3131.99 -241.477 -3139.77 -240.462L-3139.25 -236.495ZM-3116 -238H-3091.79V-242H-3116V-238ZM-3043.38 -238H-2994.97V-242H-3043.38V-238ZM-2946.56 -238H-2898.15V-242H-2946.56V-238ZM-2849.74 -238H-2801.33V-242H-2849.74V-238ZM-2752.92 -238H-2704.51V-242H-2752.92V-238ZM-2656.1 -238H-2607.69V-242H-2656.1V-238ZM-2559.28 -238H-2510.87V-242H-2559.28V-238ZM-2462.46 -238H-2414.05V-242H-2462.46V-238ZM-2365.64 -238H-2317.23V-242H-2365.64V-238ZM-2268.82 -238H-2220.41V-242H-2268.82V-238ZM-2172 -238H-2123.59V-242H-2172V-238ZM-2075.18 -238H-2026.77V-242H-2075.18V-238ZM-1978.36 -238H-1929.95V-242H-1978.36V-238ZM-1881.54 -238H-1833.13V-242H-1881.54V-238ZM-1784.72 -238H-1736.31V-242H-1784.72V-238ZM-1687.9 -238H-1639.49V-242H-1687.9V-238ZM-1591.08 -238H-1542.67V-242H-1591.08V-238ZM-1494.26 -238H-1445.85V-242H-1494.26V-238ZM-1397.44 -238H-1349.03V-242H-1397.44V-238ZM-1300.61 -238H-1252.2V-242H-1300.61V-238ZM-1203.79 -238H-1155.38V-242H-1203.79V-238ZM-1106.97 -238H-1058.56V-242H-1106.97V-238ZM-1010.15 -238H-961.743V-242H-1010.15V-238ZM-913.333 -238H-864.923V-242H-913.333V-238ZM-816.513 -238H-768.103V-242H-816.513V-238ZM-719.692 -238H-671.282V-242H-719.692V-238ZM-622.872 -238H-574.462V-242H-622.872V-238ZM-526.052 -238H-477.642V-242H-526.052V-238ZM-429.232 -238H-380.821V-242H-429.232V-238ZM-332.411 -238H-284.001V-242H-332.411V-238ZM-235.591 -238H-187.181V-242H-235.591V-238ZM-138.771 -238H-90.3604V-242H-138.771V-238ZM-41.9502 -238H6.45996V-242H-41.9502V-238ZM54.8701 -238H103.28V-242H54.8701V-238ZM151.69 -238H200.1V-242H151.69V-238ZM248.51 -238H296.921V-242H248.51V-238ZM345.331 -238H393.741V-242H345.331V-238ZM442.151 -238H490.562V-242H442.151V-238ZM538.972 -238H587.382V-242H538.972V-238ZM635.792 -238H660V-242H635.792V-238ZM660 -238C667.881 -238 675.642 -237.488 683.251 -236.495L683.768 -240.462C675.988 -241.477 668.055 -242 660 -242V-238ZM728.136 -224.494C742.605 -218.494 756.113 -210.639 768.363 -201.226L770.8 -204.398C758.277 -214.021 744.465 -222.053 729.668 -228.189L728.136 -224.494ZM801.226 -168.362C810.639 -156.113 818.494 -142.606 824.494 -128.136L828.189 -129.668C822.053 -144.465 814.021 -158.277 804.397 -170.8L801.226 -168.362ZM836.496 -83.251C837.488 -75.6421 838 -67.8813 838 -60H842C842 -68.0548 841.477 -75.9884 840.462 -83.7683L836.496 -83.251ZM838 -60V-37.5H842V-60H838ZM838 7.5V52.5H842V7.5H838ZM838 97.5V142.5H842V97.5H838ZM838 187.5V232.5H842V187.5H838ZM838 277.5V322.5H842V277.5H838ZM838 367.5V412.5H842V367.5H838ZM838 457.5V502.5H842V457.5H838ZM838 547.5V592.5H842V547.5H838ZM838 637.5V660H842V637.5H838ZM838 660C838 667.881 837.488 675.642 836.496 683.251L840.462 683.768C841.477 675.988 842 668.055 842 660H838ZM824.494 728.136C818.494 742.606 810.639 756.113 801.226 768.362L804.398 770.8C814.021 758.277 822.053 744.465 828.189 729.668L824.494 728.136ZM768.363 801.226C756.113 810.639 742.605 818.494 728.136 824.494L729.668 828.189C744.465 822.053 758.277 814.021 770.8 804.398L768.363 801.226ZM683.251 836.495C675.642 837.488 667.881 838 660 838V842C668.055 842 675.988 841.477 683.768 840.462L683.251 836.495ZM660 838H635.795V842H660V838ZM587.385 838H538.974V842H587.385V838ZM490.564 838H442.154V842H490.564V838ZM393.744 838H345.333V842H393.744V838ZM296.923 838H248.513V842H296.923V838ZM200.103 838H151.692V842H200.103V838ZM103.282 838H54.8718V842H103.282V838ZM6.46143 838H-41.9487V842H6.46143V838ZM-90.3589 838H-138.769V842H-90.3589V838ZM-187.179 838H-235.59V842H-187.179V838ZM-284 838H-332.41V842H-284V838ZM-380.821 838H-429.231V842H-380.821V838ZM-477.641 838H-526.052V842H-477.641V838ZM-574.462 838H-622.872V842H-574.462V838ZM-671.282 838H-719.693V842H-671.282V838ZM-768.103 838H-816.513V842H-768.103V838ZM-864.923 838H-913.334V842H-864.923V838ZM-961.744 838H-1010.15V842H-961.744V838ZM-1058.56 838H-1106.97V842H-1058.56V838ZM-1155.39 838H-1203.8V842H-1155.39V838ZM-1252.21 838H-1300.62V842H-1252.21V838ZM-1349.03 838H-1397.44V842H-1349.03V838ZM-1445.85 838H-1494.26V842H-1445.85V838ZM-1542.67 838H-1591.08V842H-1542.67V838ZM-1639.49 838H-1687.9V842H-1639.49V838ZM-1736.31 838H-1784.72V842H-1736.31V838ZM-1833.13 838H-1881.54V842H-1833.13V838ZM-1929.95 838H-1978.36V842H-1929.95V838ZM-2026.77 838H-2075.18V842H-2026.77V838ZM-2123.59 838H-2172V842H-2123.59V838ZM-2220.41 838H-2268.82V842H-2220.41V838ZM-2317.23 838H-2365.64V842H-2317.23V838ZM-2414.05 838H-2462.46V842H-2414.05V838ZM-2510.87 838H-2559.28V842H-2510.87V838ZM-2607.69 838H-2656.1V842H-2607.69V838ZM-2704.51 838H-2752.92V842H-2704.51V838ZM-2801.33 838H-2849.74V842H-2801.33V838ZM-2898.15 838H-2946.56V842H-2898.15V838ZM-2994.97 838H-3043.38V842H-2994.97V838ZM-3091.79 838H-3116V842H-3091.79V838ZM-3116 836C-3123.79 836 -3131.47 835.494 -3138.99 834.512L-3140.03 842.445C-3132.16 843.471 -3124.14 844 -3116 844V836ZM-3183.37 822.647C-3197.68 816.714 -3211.03 808.948 -3223.14 799.64L-3228.02 805.984C-3215.36 815.712 -3201.39 823.832 -3186.43 830.036L-3183.37 822.647ZM-3255.64 767.144C-3264.95 755.032 -3272.71 741.676 -3278.65 727.37L-3286.04 730.434C-3279.83 745.395 -3271.71 759.358 -3261.98 772.018L-3255.64 767.144ZM-3290.51 682.992C-3291.49 675.469 -3292 667.795 -3292 660H-3300C-3300 668.142 -3299.47 676.161 -3298.44 684.027L-3290.51 682.992ZM-3292 660V637.5H-3300V660H-3292ZM-3292 592.5V547.5H-3300V592.5H-3292ZM-3292 502.5V457.5H-3300V502.5H-3292ZM-3292 412.5V367.5H-3300V412.5H-3292ZM-3292 322.5V277.5H-3300V322.5H-3292ZM-3292 232.5V187.5H-3300V232.5H-3292ZM-3292 142.5V97.5H-3300V142.5H-3292ZM-3292 52.5V7.50002H-3300V52.5H-3292ZM-3292 -37.5V-60H-3300V-37.5H-3292ZM-3292 -60C-3292 -67.7946 -3291.49 -75.4689 -3290.51 -82.9923L-3298.44 -84.027C-3299.47 -76.1615 -3300 -68.1415 -3300 -60H-3292ZM-3278.65 -127.37C-3272.71 -141.676 -3264.95 -155.032 -3255.64 -167.144L-3261.98 -172.018C-3271.71 -159.358 -3279.83 -145.395 -3286.04 -130.434L-3278.65 -127.37ZM-3223.14 -199.64C-3211.03 -208.948 -3197.68 -216.714 -3183.37 -222.647L-3186.43 -230.036C-3201.39 -223.832 -3215.36 -215.712 -3228.02 -205.984L-3223.14 -199.64ZM-3138.99 -234.512C-3131.47 -235.494 -3123.79 -236 -3116 -236V-244C-3124.14 -244 -3132.16 -243.471 -3140.03 -242.445L-3138.99 -234.512ZM-3116 -236H-3091.79V-244H-3116V-236ZM-3043.38 -236H-2994.97V-244H-3043.38V-236ZM-2946.56 -236H-2898.15V-244H-2946.56V-236ZM-2849.74 -236H-2801.33V-244H-2849.74V-236ZM-2752.92 -236H-2704.51V-244H-2752.92V-236ZM-2656.1 -236H-2607.69V-244H-2656.1V-236ZM-2559.28 -236H-2510.87V-244H-2559.28V-236ZM-2462.46 -236H-2414.05V-244H-2462.46V-236ZM-2365.64 -236H-2317.23V-244H-2365.64V-236ZM-2268.82 -236H-2220.41V-244H-2268.82V-236ZM-2172 -236H-2123.59V-244H-2172V-236ZM-2075.18 -236H-2026.77V-244H-2075.18V-236ZM-1978.36 -236H-1929.95V-244H-1978.36V-236ZM-1881.54 -236H-1833.13V-244H-1881.54V-236ZM-1784.72 -236H-1736.31V-244H-1784.72V-236ZM-1687.9 -236H-1639.49V-244H-1687.9V-236ZM-1591.08 -236H-1542.67V-244H-1591.08V-236ZM-1494.26 -236H-1445.85V-244H-1494.26V-236ZM-1397.44 -236H-1349.03V-244H-1397.44V-236ZM-1300.61 -236H-1252.2V-244H-1300.61V-236ZM-1203.79 -236H-1155.38V-244H-1203.79V-236ZM-1106.97 -236H-1058.56V-244H-1106.97V-236ZM-1010.15 -236H-961.743V-244H-1010.15V-236ZM-913.333 -236H-864.923V-244H-913.333V-236ZM-816.513 -236H-768.103V-244H-816.513V-236ZM-719.692 -236H-671.282V-244H-719.692V-236ZM-622.872 -236H-574.462V-244H-622.872V-236ZM-526.052 -236H-477.642V-244H-526.052V-236ZM-429.232 -236H-380.821V-244H-429.232V-236ZM-332.411 -236H-284.001V-244H-332.411V-236ZM-235.591 -236H-187.181V-244H-235.591V-236ZM-138.771 -236H-90.3604V-244H-138.771V-236ZM-41.9502 -236H6.45996V-244H-41.9502V-236ZM54.8701 -236H103.28V-244H54.8701V-236ZM151.69 -236H200.1V-244H151.69V-236ZM248.51 -236H296.921V-244H248.51V-236ZM345.331 -236H393.741V-244H345.331V-236ZM442.151 -236H490.562V-244H442.151V-236ZM538.972 -236H587.382V-244H538.972V-236ZM635.792 -236H660V-244H635.792V-236ZM660 -236C667.794 -236 675.469 -235.494 682.992 -234.512L684.027 -242.445C676.161 -243.471 668.141 -244 660 -244V-236ZM727.37 -222.647C741.676 -216.714 755.032 -208.948 767.144 -199.64L772.018 -205.984C759.358 -215.712 745.395 -223.832 730.434 -230.036L727.37 -222.647ZM799.64 -167.144C808.948 -155.032 816.714 -141.676 822.646 -127.37L830.037 -130.434C823.833 -145.395 815.712 -159.358 805.983 -172.018L799.64 -167.144ZM834.512 -82.9923C835.494 -75.4689 836 -67.7946 836 -60H844C844 -68.1415 843.471 -76.1615 842.445 -84.027L834.512 -82.9923ZM836 -60V-37.5H844V-60H836ZM836 7.5V52.5H844V7.5H836ZM836 97.5V142.5H844V97.5H836ZM836 187.5V232.5H844V187.5H836ZM836 277.5V322.5H844V277.5H836ZM836 367.5V412.5H844V367.5H836ZM836 457.5V502.5H844V457.5H836ZM836 547.5V592.5H844V547.5H836ZM836 637.5V660H844V637.5H836ZM836 660C836 667.795 835.494 675.469 834.512 682.992L842.445 684.027C843.471 676.161 844 668.142 844 660H836ZM822.646 727.37C816.714 741.676 808.948 755.032 799.64 767.144L805.983 772.018C815.712 759.358 823.833 745.395 830.037 730.434L822.646 727.37ZM767.144 799.64C755.032 808.948 741.676 816.714 727.37 822.647L730.434 830.036C745.395 823.832 759.358 815.712 772.019 805.984L767.144 799.64ZM682.992 834.512C675.469 835.494 667.795 836 660 836V844C668.142 844 676.162 843.471 684.027 842.445L682.992 834.512ZM660 836H635.795V844H660V836ZM587.385 836H538.974V844H587.385V836ZM490.564 836H442.154V844H490.564V836ZM393.744 836H345.333V844H393.744V836ZM296.923 836H248.513V844H296.923V836ZM200.103 836H151.692V844H200.103V836ZM103.282 836H54.8718V844H103.282V836ZM6.46143 836H-41.9487V844H6.46143V836ZM-90.3589 836H-138.769V844H-90.3589V836ZM-187.179 836H-235.59V844H-187.179V836ZM-284 836H-332.41V844H-284V836ZM-380.821 836H-429.231V844H-380.821V836ZM-477.641 836H-526.052V844H-477.641V836ZM-574.462 836H-622.872V844H-574.462V836ZM-671.282 836H-719.693V844H-671.282V836ZM-768.103 836H-816.513V844H-768.103V836ZM-864.923 836H-913.334V844H-864.923V836ZM-961.744 836H-1010.15V844H-961.744V836ZM-1058.56 836H-1106.97V844H-1058.56V836ZM-1155.39 836H-1203.8V844H-1155.39V836ZM-1252.21 836H-1300.62V844H-1252.21V836ZM-1349.03 836H-1397.44V844H-1349.03V836ZM-1445.85 836H-1494.26V844H-1445.85V836ZM-1542.67 836H-1591.08V844H-1542.67V836ZM-1639.49 836H-1687.9V844H-1639.49V836ZM-1736.31 836H-1784.72V844H-1736.31V836ZM-1833.13 836H-1881.54V844H-1833.13V836ZM-1929.95 836H-1978.36V844H-1929.95V836ZM-2026.77 836H-2075.18V844H-2026.77V836ZM-2123.59 836H-2172V844H-2123.59V836ZM-2220.41 836H-2268.82V844H-2220.41V836ZM-2317.23 836H-2365.64V844H-2317.23V836ZM-2414.05 836H-2462.46V844H-2414.05V836ZM-2510.87 836H-2559.28V844H-2510.87V836ZM-2607.69 836H-2656.1V844H-2607.69V836ZM-2704.51 836H-2752.92V844H-2704.51V836ZM-2801.33 836H-2849.74V844H-2801.33V836ZM-2898.15 836H-2946.56V844H-2898.15V836ZM-2994.97 836H-3043.38V844H-2994.97V836ZM-3091.79 836H-3116V844H-3091.79V836Z" fill="#9747FF"/>
<g filter="url(#filter0_ii_1_13)">
<g clip-path="url(#clip0_1_13)">
<rect width="600" height="600" rx="164" fill="url(#paint0_linear_1_13)"/>
<g filter="url(#filter1_d_1_13)">
<path fill-rule="evenodd" clip-rule="evenodd" d="M300.504 152.865C284.653 160.488 269.549 174.464 265.174 194.702C260.118 218.136 240.857 236.603 215.949 241.916C147.759 256.43 148.943 347.714 217.493 360.676C242.53 365.398 262.266 383.429 267.94 406.734C269.954 415.484 273.929 423.664 279.567 430.661C285.205 437.658 292.358 443.29 300.491 447.134C266.165 463.663 217.12 450.406 206.505 406.734C200.844 383.429 181.095 365.411 156.071 360.676C87.5078 347.714 86.3113 256.43 154.514 241.916C179.422 236.603 198.683 218.123 203.739 194.715C213.363 150.196 265.676 136.041 300.504 152.865ZM300.504 152.865C316.342 160.488 331.46 174.464 335.821 194.702C340.877 218.136 360.138 236.603 385.046 241.916C453.249 256.43 452.052 347.714 383.503 360.676C358.465 365.398 338.729 383.429 333.068 406.734C331.053 415.485 327.076 423.666 321.436 430.663C315.796 437.66 308.626 443.292 300.491 447.134C334.83 463.663 383.876 450.406 394.49 406.734C400.151 383.429 419.9 365.411 444.925 360.676C513.5 347.714 514.684 256.43 446.481 241.916C421.586 236.616 402.313 218.136 397.256 194.715C387.658 150.196 335.345 136.041 300.504 152.865Z" fill="white"/>
</g>
<g opacity="0.56" filter="url(#filter2_f_1_13)">
<circle cx="300" cy="300" r="372" fill="url(#paint1_linear_1_13)"/>
</g>
<g opacity="0.56" filter="url(#filter3_f_1_13)">
<circle cx="300" cy="300" r="372" transform="rotate(180 300 300)" fill="url(#paint2_linear_1_13)"/>
</g>
<path d="M394.49 406.734C400.151 383.429 419.9 365.411 444.925 360.676M394.49 406.734L301.665 152.319C336.496 136.357 387.764 150.688 397.256 194.715C402.313 218.136 421.586 236.616 446.481 241.916M394.49 406.734C383.995 449.914 335.932 463.36 301.659 447.682C302.045 447.493 302.429 447.3 302.811 447.104M394.49 406.734L385.046 241.916M444.925 360.676C513.5 347.714 514.684 256.43 446.481 241.916M444.925 360.676L444.739 359.693C512.252 346.932 513.397 257.179 446.273 242.894L446.481 241.916M444.925 360.676L444.739 359.693C419.36 364.496 399.279 382.781 393.518 406.498C388.298 427.978 373.641 441.97 356.036 448.573C339.057 454.942 319.357 454.427 302.811 447.104M446.481 241.916L446.273 242.894C421.023 237.518 401.425 218.761 396.279 194.926L396.279 194.925C391.563 173.051 376.363 158.623 357.995 151.722C340.266 145.062 319.647 145.441 302.813 152.898C318.144 160.794 332.526 174.667 336.799 194.491M302.811 447.104C310.302 443.242 316.92 437.858 322.214 431.291C327.948 424.177 331.991 415.861 334.041 406.965M302.811 447.104C302.42 446.931 302.032 446.754 301.645 446.574C309.304 442.753 316.064 437.328 321.436 430.663C327.076 423.666 331.053 415.485 333.068 406.734M334.041 406.965C339.604 384.074 359.008 366.314 383.688 361.658L383.688 361.658C453.3 348.496 454.536 255.682 385.255 240.938M334.041 406.965C334.041 406.963 334.042 406.961 334.042 406.959L333.068 406.734M334.041 406.965C334.04 406.967 334.04 406.969 334.04 406.971L333.068 406.734M385.255 240.938C360.7 235.7 341.765 217.51 336.799 194.491M385.255 240.938L385.046 241.916M385.255 240.938C385.255 240.938 385.255 240.938 385.255 240.938L385.046 241.916M336.799 194.491L335.821 194.702L336.799 194.491C336.799 194.491 336.799 194.491 336.799 194.491ZM385.046 241.916C453.249 256.43 452.052 347.714 383.503 360.676C358.465 365.398 338.729 383.429 333.068 406.734M279.567 430.661C284.937 437.325 291.682 442.752 299.338 446.574L299.358 153.428C283.931 161.166 269.443 174.952 265.174 194.702C260.118 218.136 240.857 236.603 215.949 241.916C147.759 256.43 148.943 347.714 217.493 360.676C242.53 365.398 262.266 383.429 267.94 406.734C269.954 415.484 273.929 423.664 279.567 430.661ZM298.194 152.898C282.852 160.793 268.482 174.667 264.197 194.491L264.197 194.491C259.23 217.51 240.295 235.7 215.741 240.938C146.473 255.682 147.694 348.496 217.307 361.658L217.307 361.658C241.987 366.313 261.391 384.073 266.967 406.965C269.015 415.859 273.057 424.175 278.788 431.288C284.08 437.856 290.684 443.24 298.173 447.104C281.633 454.427 261.936 454.942 244.957 448.573C227.354 441.97 212.698 427.978 207.477 406.498C201.716 382.781 181.635 364.496 156.257 359.693L156.256 359.693C88.7554 346.932 87.5988 257.179 154.722 242.894L154.722 242.894C179.985 237.505 199.571 218.749 204.716 194.926C209.445 173.051 224.652 158.623 243.022 151.722C260.751 145.062 281.367 145.441 298.194 152.898Z" stroke="white" stroke-width="2" stroke-linejoin="round"/>
</g>
<rect x="8" y="8" width="584" height="584" rx="156" stroke="#010101" stroke-width="16"/>
</g>
<defs>
<filter id="filter0_ii_1_13" x="0" y="-8" width="600" height="608" filterUnits="userSpaceOnUse" color-interpolation-filters="sRGB">
<feFlood flood-opacity="0" result="BackgroundImageFix"/>
<feBlend mode="normal" in="SourceGraphic" in2="BackgroundImageFix" result="shape"/>
<feColorMatrix in="SourceAlpha" type="matrix" values="0 0 0 0 0 0 0 0 0 0 0 0 0 0 0 0 0 0 127 0" result="hardAlpha"/>
<feOffset dy="-24"/>
<feGaussianBlur stdDeviation="4"/>
<feComposite in2="hardAlpha" operator="arithmetic" k2="-1" k3="1"/>
<feColorMatrix type="matrix" values="0 0 0 0 0.274852 0 0 0 0 0.302559 0 0 0 0 0.393596 0 0 0 0.56 0"/>
<feBlend mode="normal" in2="shape" result="effect1_innerShadow_1_13"/>
<feColorMatrix in="SourceAlpha" type="matrix" values="0 0 0 0 0 0 0 0 0 0 0 0 0 0 0 0 0 0 127 0" result="hardAlpha"/>
<feMorphology radius="16" operator="erode" in="SourceAlpha" result="effect2_innerShadow_1_13"/>
<feOffset dy="-8"/>
<feGaussianBlur stdDeviation="4"/>
<feComposite in2="hardAlpha" operator="arithmetic" k2="-1" k3="1"/>
<feColorMatrix type="matrix" values="0 0 0 0 0.487801 0 0 0 0 0.54706 0 0 0 0 0.747054 0 0 0 0.56 0"/>
<feBlend mode="normal" in2="effect1_innerShadow_1_13" result="effect2_innerShadow_1_13"/>
</filter>
<filter id="filter1_d_1_13" x="48" y="106" width="505" height="420" filterUnits="userSpaceOnUse" color-interpolation-filters="sRGB">
<feFlood flood-opacity="0" result="BackgroundImageFix"/>
<feColorMatrix in="SourceAlpha" type="matrix" values="0 0 0 0 0 0 0 0 0 0 0 0 0 0 0 0 0 0 127 0" result="hardAlpha"/>
<feOffset dy="16"/>
<feGaussianBlur stdDeviation="28"/>
<feComposite in2="hardAlpha" operator="out"/>
<feColorMatrix type="matrix" values="0 0 0 0 0 0 0 0 0 0 0 0 0 0 0 0 0 0 1 0"/>
<feBlend mode="normal" in2="BackgroundImageFix" result="effect1_dropShadow_1_13"/>
<feBlend mode="normal" in="SourceGraphic" in2="effect1_dropShadow_1_13" result="shape"/>
</filter>
<filter id="filter2_f_1_13" x="-104" y="-104" width="808" height="808" filterUnits="userSpaceOnUse" color-interpolation-filters="sRGB">
<feFlood flood-opacity="0" result="BackgroundImageFix"/>
<feBlend mode="normal" in="SourceGraphic" in2="BackgroundImageFix" result="shape"/>
<feGaussianBlur stdDeviation="16" result="effect1_foregroundBlur_1_13"/>
</filter>
<filter id="filter3_f_1_13" x="-104" y="-104" width="808" height="808" filterUnits="userSpaceOnUse" color-interpolation-filters="sRGB">
<feFlood flood-opacity="0" result="BackgroundImageFix"/>
<feBlend mode="normal" in="SourceGraphic" in2="BackgroundImageFix" result="shape"/>
<feGaussianBlur stdDeviation="16" result="effect1_foregroundBlur_1_13"/>
</filter>
<linearGradient id="paint0_linear_1_13" x1="300" y1="0" x2="300" y2="600" gradientUnits="userSpaceOnUse">
<stop stop-color="#282A31"/>
<stop offset="1" stop-color="#161719"/>
</linearGradient>
<linearGradient id="paint1_linear_1_13" x1="174.667" y1="262" x2="483.333" y2="570.667" gradientUnits="userSpaceOnUse">
<stop stop-color="#205AA7" stop-opacity="0"/>
<stop offset="1" stop-color="#17447E"/>
</linearGradient>
<linearGradient id="paint2_linear_1_13" x1="174.667" y1="262" x2="483.333" y2="570.667" gradientUnits="userSpaceOnUse">
<stop stop-color="#205AA7" stop-opacity="0"/>
<stop offset="1" stop-color="#FF9552"/>
</linearGradient>
<clipPath id="clip0_1_13">
<rect width="600" height="600" rx="164" fill="white"/>
</clipPath>
</defs>
</svg>
